<svg width="94" height="98" viewBox="0 0 94 98" fill="none" xmlns="http://www.w3.org/2000/svg">
<rect x="2" y="2" width="90" height="94" fill="#6762FF"/>
<rect y="6" width="2" height="10" fill="black"/>
<rect x="16" width="2" height="10" transform="rotate(90 16 0)" fill="black"/>
<path d="M1 6C1 2 4.33333 1 6 1" stroke="black" stroke-width="2"/>
<rect x="46" y="18" width="2" height="29" fill="black"/>
<rect x="68" y="47" width="2" height="20" transform="rotate(90 68 47)" fill="black"/>
<rect x="6" y="98" width="2" height="10" transform="rotate(-90 6 98)" fill="black"/>
<rect y="82" width="2" height="10" fill="black"/>
<path d="M6 97C2 97 1 93.6667 0.999999 92" stroke="black" stroke-width="2"/>
<rect x="94" y="92" width="2" height="10" transform="rotate(180 94 92)" fill="black"/>
<rect x="78" y="98" width="2" height="10" transform="rotate(-90 78 98)" fill="black"/>
<path d="M93 92C93 96 89.6667 97 88 97" stroke="black" stroke-width="2"/>
<rect x="88" width="2" height="10" transform="rotate(90 88 0)" fill="black"/>
<rect x="94" y="16" width="2" height="10" transform="rotate(-180 94 16)" fill="black"/>
<path d="M88 1C92 1 93 4.33333 93 6" stroke="black" stroke-width="2"/>
<circle cx="47" cy="48" r="3" fill="black"/>
<path d="M40.291 69.125V70.6602H41.4746V71.498H40.291V75.4297C40.291 75.6836 40.3438 75.875 40.4492 76.0039C40.5547 76.1289 40.7344 76.1914 40.9883 76.1914C41.1133 76.1914 41.2852 76.168 41.5039 76.1211V77C41.2188 77.0781 40.9414 77.1172 40.6719 77.1172C40.1875 77.1172 39.8223 76.9707 39.5762 76.6777C39.3301 76.3848 39.207 75.9688 39.207 75.4297V71.498H38.0527V70.6602H39.207V69.125H40.291ZM43.9238 77H42.8398V70.6602H43.9238V77ZM42.752 68.9785C42.752 68.8027 42.8047 68.6543 42.9102 68.5332C43.0195 68.4121 43.1797 68.3516 43.3906 68.3516C43.6016 68.3516 43.7617 68.4121 43.8711 68.5332C43.9805 68.6543 44.0352 68.8027 44.0352 68.9785C44.0352 69.1543 43.9805 69.3008 43.8711 69.418C43.7617 69.5352 43.6016 69.5938 43.3906 69.5938C43.1797 69.5938 43.0195 69.5352 42.9102 69.418C42.8047 69.3008 42.752 69.1543 42.752 68.9785ZM47.1348 69.125V70.6602H48.3184V71.498H47.1348V75.4297C47.1348 75.6836 47.1875 75.875 47.293 76.0039C47.3984 76.1289 47.5781 76.1914 47.832 76.1914C47.957 76.1914 48.1289 76.168 48.3477 76.1211V77C48.0625 77.0781 47.7852 77.1172 47.5156 77.1172C47.0312 77.1172 46.666 76.9707 46.4199 76.6777C46.1738 76.3848 46.0508 75.9688 46.0508 75.4297V71.498H44.8965V70.6602H46.0508V69.125H47.1348ZM50.7676 77H49.6836V68H50.7676V77ZM55.1387 77.1172C54.2793 77.1172 53.5801 76.8359 53.041 76.2734C52.502 75.707 52.2324 74.9512 52.2324 74.0059V73.8066C52.2324 73.1777 52.3516 72.6172 52.5898 72.125C52.832 71.6289 53.168 71.2422 53.5977 70.9648C54.0312 70.6836 54.5 70.543 55.0039 70.543C55.8281 70.543 56.4688 70.8145 56.9258 71.3574C57.3828 71.9004 57.6113 72.6777 57.6113 73.6895V74.1406H53.3164C53.332 74.7656 53.5137 75.2715 53.8613 75.6582C54.2129 76.041 54.6582 76.2324 55.1973 76.2324C55.5801 76.2324 55.9043 76.1543 56.1699 75.998C56.4355 75.8418 56.668 75.6348 56.8672 75.377L57.5293 75.8926C56.998 76.709 56.2012 77.1172 55.1387 77.1172ZM55.0039 71.4336C54.5664 71.4336 54.1992 71.5938 53.9023 71.9141C53.6055 72.2305 53.4219 72.6758 53.3516 73.25H56.5273V73.168C56.4961 72.6172 56.3477 72.1914 56.082 71.8906C55.8164 71.5859 55.457 71.4336 55.0039 71.4336Z" fill="black"/>
</svg>
